<svg width="300" height="300" viewBox="0 0 300 300" fill="none" xmlns="http://www.w3.org/2000/svg">
<rect width="300" height="300" fill="url(#paint0_linear_17_9)"/>
<path d="M225.996 149.082C227.043 149.082 227.794 149.422 228.249 150.102C228.75 150.782 229 151.667 229 152.755C229 154.524 228.636 156.088 227.908 157.449C227.225 158.81 226.133 159.524 224.631 159.592C220.989 159.728 217.758 159.32 214.936 158.367C211.705 168.503 207.79 176.939 203.193 183.673C198.642 190.34 194.068 193.673 189.471 193.673C184.737 193.673 181.21 189.558 178.889 181.327C176.568 173.095 175.407 161.973 175.407 147.959C175.407 135.986 175.976 125.238 177.114 115.714C177.523 112.177 178.092 109.796 178.821 108.571C179.594 107.279 180.891 106.633 182.712 106.633C185.716 106.633 187.218 108.571 187.218 112.449C187.218 112.857 187.172 113.605 187.081 114.694C185.716 126.939 185.033 138.027 185.033 147.959C185.033 158.367 185.602 166.292 186.74 171.735C187.923 177.109 189.676 179.796 191.997 179.796C194.364 179.796 196.935 177.347 199.712 172.449C202.488 167.551 205.037 161.395 207.358 153.98C204.582 151.395 202.488 148.061 201.077 143.98C199.666 139.83 198.961 135.068 198.961 129.694C198.961 124.32 199.507 119.796 200.599 116.122C201.737 112.381 203.262 109.592 205.173 107.755C207.13 105.918 209.292 105 211.659 105C214.572 105 216.87 106.565 218.554 109.694C220.284 112.823 221.149 117.109 221.149 122.551C221.149 130.374 220.011 138.912 217.735 148.163C220.147 148.775 222.901 149.082 225.996 149.082ZM205.856 128.98C205.856 135.646 207.29 140.578 210.157 143.775C211.932 136.156 212.82 129.864 212.82 124.898C212.82 122.041 212.569 119.966 212.069 118.673C211.568 117.313 210.885 116.633 210.021 116.633C208.792 116.633 207.79 117.721 207.017 119.898C206.243 122.007 205.856 125.034 205.856 128.98Z" fill="#F9F9F9"/>
<path d="M166.933 107.245C168.117 107.245 169.118 107.687 169.937 108.571C170.757 109.388 171.166 110.408 171.166 111.633C171.166 113.809 170.711 115.578 169.801 116.939C168.89 118.231 167.593 118.878 165.909 118.878C163.269 118.878 161.267 118.912 159.901 118.98C159.81 119.796 159.401 123.469 158.673 130C157.853 137.279 157.353 141.735 157.171 143.367L155.737 156.735C154.736 166.735 153.939 175.102 153.347 181.837C154.303 181.769 155.6 181.735 157.239 181.735C159.651 181.735 161.29 182.211 162.154 183.163C163.019 184.116 163.451 185.544 163.451 187.449C163.451 189.218 162.974 190.714 162.018 191.939C161.108 193.163 159.81 193.775 158.126 193.775C156.988 193.775 155.191 193.707 152.733 193.571C150.457 193.435 148.955 193.367 148.227 193.367C145.36 193.367 142.219 193.741 138.806 194.49C137.304 194.83 136.234 195 135.597 195C134.595 195 133.753 194.592 133.071 193.775C132.388 192.959 132.047 191.769 132.047 190.204C132.047 187.755 132.775 185.85 134.231 184.49C135.688 183.129 137.736 182.415 140.376 182.347L143.585 182.245L143.789 180C144.882 169.116 145.678 161.429 146.179 156.939L147.681 143.571C148.591 135.68 149.41 127.551 150.139 119.184L144.404 119.286C142.765 119.286 141.627 118.912 140.99 118.163C140.399 117.347 140.103 116.224 140.103 114.796C140.103 110.17 142.333 107.687 146.793 107.347C148.887 107.211 151.436 107.143 154.44 107.143L166.933 107.245Z" fill="#F9F9F9"/>
<path d="M64.9072 193.673C63.2232 193.673 62.0171 193.129 61.2888 192.041C60.5606 190.884 60.1965 188.742 60.1965 185.612C60.1965 183.503 60.333 180.816 60.6061 177.551C60.9247 174.218 61.4254 169.66 62.1081 163.878C63.2915 153.197 64.2245 143.946 64.9072 136.122C65.3168 131.225 65.5217 127.143 65.5217 123.878C65.5217 120.816 64.7707 119.286 63.2687 119.286C62.0853 119.286 60.6516 120.204 58.9676 122.041C57.3291 123.81 55.5085 126.667 53.5059 130.612C52.8687 131.905 52.1632 132.551 51.3895 132.551C50.7523 132.551 50.1834 132.109 49.6827 131.225C49.2276 130.272 49 129.218 49 128.061C49 126.973 49.1365 125.884 49.4096 124.796C49.7282 123.639 50.2289 122.347 50.9116 120.918C53.0963 116.361 55.5313 112.857 58.2166 110.408C60.902 107.891 63.5873 106.633 66.2726 106.633C68.7759 106.633 70.6875 107.823 72.0074 110.204C73.3729 112.585 74.0556 116.054 74.0556 120.612C74.0556 122.449 73.9418 124.626 73.7142 127.143C73.4866 129.592 73.2818 131.599 73.0998 133.163C72.9177 134.728 72.7812 135.816 72.6901 136.429C75.2845 125.34 78.1974 117.619 81.4289 113.265C84.6604 108.844 88.2105 106.633 92.0792 106.633C95.0376 106.633 97.3589 108.197 99.0429 111.327C100.772 114.456 101.637 118.878 101.637 124.592C101.637 126.837 101.432 129.626 101.023 132.959C103.298 123.571 105.961 116.837 109.01 112.755C112.06 108.674 115.565 106.633 119.524 106.633C122.71 106.633 125.145 108.163 126.829 111.225C128.559 114.286 129.424 118.571 129.424 124.082C129.424 127.075 129.128 130.714 128.536 135L124.372 164.184C123.916 167.585 123.689 170.51 123.689 172.959C123.689 175.816 124.121 177.959 124.986 179.388C125.896 180.816 127.148 181.531 128.741 181.531C130.243 181.531 131.699 180.782 133.11 179.286C134.567 177.789 136.274 175.306 138.231 171.837C138.777 170.884 139.391 170.408 140.074 170.408C140.666 170.408 141.121 170.816 141.439 171.633C141.803 172.449 141.986 173.571 141.986 175C141.986 177.653 141.553 179.762 140.688 181.327C138.322 185.612 135.978 188.742 133.656 190.714C131.335 192.687 128.9 193.673 126.351 193.673C122.483 193.673 119.456 191.973 117.271 188.571C115.087 185.102 113.994 180.476 113.994 174.694C113.994 170.68 114.54 164.864 115.633 157.245L118.364 138.571C118.455 137.959 118.614 136.871 118.842 135.306C119.069 133.742 119.251 132.279 119.388 130.918C119.524 129.49 119.593 128.095 119.593 126.735C119.593 124.354 119.274 122.585 118.637 121.429C118.045 120.204 117.18 119.592 116.042 119.592C113.903 119.592 111.65 121.667 109.284 125.816C106.962 129.898 104.732 136.701 102.593 146.225C100.499 155.748 98.7925 168.129 97.4726 183.367C97.154 187.449 96.5851 190.204 95.7659 191.633C94.9921 192.993 93.7177 193.673 91.9427 193.673C90.3952 193.673 89.2573 193.129 88.5291 192.041C87.8464 190.952 87.505 188.912 87.505 185.918C87.505 183.129 87.7554 179.49 88.256 175C88.7567 170.442 89.3939 165.102 90.1676 158.98C92.2613 142.517 93.3081 131.905 93.3081 127.143C93.3081 124.558 92.9667 122.653 92.284 121.429C91.6468 120.204 90.6683 119.592 89.3484 119.592C87.1182 119.592 84.8197 121.497 82.4529 125.306C80.0862 129.048 77.765 135.748 75.4893 145.408C73.2591 155 71.393 167.993 69.891 184.388C69.5724 187.857 69.0945 190.272 68.4573 191.633C67.8656 192.993 66.6823 193.673 64.9072 193.673Z" fill="#F9F9F9"/>
<defs>
<linearGradient id="paint0_linear_17_9" x1="6" y1="6.5" x2="300" y2="300" gradientUnits="userSpaceOnUse">
<stop stop-color="#0E0E0E"/>
<stop offset="1" stop-color="#747474"/>
</linearGradient>
</defs>
</svg>
