<svg width="180" height="90" viewBox="0 0 180 90" fill="none" xmlns="http://www.w3.org/2000/svg">
<path d="M176.996 44.0816C178.043 44.0816 178.794 44.4218 179.249 45.102C179.75 45.7823 180 46.6667 180 47.7551C180 49.5238 179.636 51.0884 178.908 52.449C178.225 53.8095 177.133 54.5238 175.631 54.5918C171.989 54.7279 168.758 54.3197 165.936 53.3673C162.705 63.5034 158.79 71.9388 154.193 78.6734C149.642 85.3401 145.068 88.6734 140.471 88.6734C135.737 88.6734 132.21 84.5578 129.889 76.3265C127.568 68.0952 126.407 56.9728 126.407 42.9592C126.407 30.9864 126.976 20.2381 128.114 10.7143C128.523 7.17687 129.092 4.79591 129.821 3.57142C130.594 2.27891 131.891 1.63265 133.712 1.63265C136.716 1.63265 138.218 3.57142 138.218 7.44898C138.218 7.85714 138.172 8.60544 138.081 9.69387C136.716 21.9388 136.033 33.0272 136.033 42.9592C136.033 53.3673 136.602 61.2925 137.74 66.7347C138.923 72.1088 140.676 74.7959 142.997 74.7959C145.364 74.7959 147.935 72.3469 150.712 67.449C153.488 62.551 156.037 56.3945 158.358 48.9796C155.582 46.3945 153.488 43.0612 152.077 38.9796C150.666 34.8299 149.961 30.068 149.961 24.6939C149.961 19.3197 150.507 14.7959 151.599 11.1224C152.737 7.38094 154.262 4.59183 156.173 2.7551C158.13 0.918367 160.292 0 162.659 0C165.572 0 167.87 1.56463 169.554 4.69388C171.284 7.82313 172.149 12.1088 172.149 17.551C172.149 25.3741 171.011 33.9115 168.735 43.1632C171.147 43.7755 173.901 44.0816 176.996 44.0816ZM156.856 23.9796C156.856 30.6462 158.29 35.5782 161.157 38.7755C162.932 31.1565 163.82 24.8639 163.82 19.898C163.82 17.0408 163.569 14.966 163.069 13.6735C162.568 12.3129 161.885 11.6326 161.021 11.6326C159.792 11.6326 158.79 12.7211 158.017 14.8979C157.243 17.0068 156.856 20.034 156.856 23.9796Z" fill="#F9F9F9"/>
<path d="M117.933 2.24486C119.117 2.24486 120.118 2.68704 120.937 3.57139C121.757 4.38772 122.166 5.40813 122.166 6.63262C122.166 8.80949 121.711 10.5782 120.801 11.9387C119.89 13.2313 118.593 13.8775 116.909 13.8775C114.269 13.8775 112.267 13.9115 110.901 13.9796C110.81 14.7959 110.401 18.4693 109.673 25C108.853 32.2789 108.353 36.7347 108.171 38.3673L106.737 51.7346C105.736 61.7346 104.939 70.102 104.347 76.8367C105.303 76.7686 106.6 76.7346 108.239 76.7346C110.651 76.7346 112.29 77.2108 113.154 78.1632C114.019 79.1156 114.451 80.5442 114.451 82.4489C114.451 84.2176 113.974 85.7142 113.018 86.9387C112.108 88.1632 110.81 88.7754 109.126 88.7754C107.988 88.7754 106.191 88.7074 103.733 88.5714C101.457 88.4353 99.9552 88.3673 99.227 88.3673C96.3596 88.3673 93.2191 88.7414 89.8055 89.4897C88.3036 89.8299 87.234 89.9999 86.5968 89.9999C85.5955 89.9999 84.7535 89.5918 84.0708 88.7754C83.388 87.9591 83.0467 86.7687 83.0467 85.204C83.0467 82.755 83.7749 80.8503 85.2314 79.4897C86.6878 78.1292 88.736 77.4149 91.3758 77.3469L94.5845 77.2448L94.7894 74.9999C95.8817 64.1156 96.6782 56.4285 97.1789 51.9387L98.6808 38.5714C99.5911 30.6802 100.41 22.551 101.139 14.1836L95.4038 14.2857C93.7653 14.2857 92.6274 13.9115 91.9902 13.1632C91.3985 12.3469 91.1027 11.2245 91.1027 9.79589C91.1027 5.17004 93.3329 2.68704 97.7933 2.34691C99.8869 2.21085 102.436 2.14282 105.44 2.14282L117.933 2.24486Z" fill="#F9F9F9"/>
<path d="M15.9072 88.6735C14.2232 88.6735 13.0171 88.1293 12.2888 87.0408C11.5606 85.8844 11.1965 83.7415 11.1965 80.6123C11.1965 78.5034 11.333 75.8163 11.6061 72.551C11.9247 69.2177 12.4254 64.6599 13.1081 58.8776C14.2915 48.1973 15.2245 38.9456 15.9072 31.1225C16.3168 26.2245 16.5217 22.1429 16.5217 18.8776C16.5217 15.8164 15.7707 14.2857 14.2687 14.2857C13.0853 14.2857 11.6516 15.2041 9.96761 17.0408C8.3291 18.8096 6.50853 21.6667 4.50591 25.6123C3.86871 26.9048 3.16324 27.5511 2.3895 27.5511C1.7523 27.5511 1.18337 27.1089 0.682713 26.2245C0.227571 25.2721 0 24.2177 0 23.0613C0 21.9728 0.136543 20.8844 0.409628 19.796C0.728227 18.6395 1.22888 17.347 1.9116 15.9184C4.09628 11.3606 6.53129 7.85718 9.21663 5.4082C11.902 2.89119 14.5873 1.63269 17.2726 1.63269C19.7759 1.63269 21.6875 2.82317 23.0074 5.20412C24.3729 7.58507 25.0556 11.0545 25.0556 15.6123C25.0556 17.449 24.9418 19.6259 24.7142 22.1429C24.4866 24.5919 24.2818 26.5987 24.0998 28.1633C23.9177 29.7279 23.7812 30.8164 23.6901 31.4286C26.2845 20.3402 29.1974 12.6191 32.4289 8.26534C35.6604 3.84357 39.2105 1.63269 43.0792 1.63269C46.0376 1.63269 48.3589 3.19732 50.0429 6.32657C51.7724 9.45582 52.6372 13.8776 52.6372 19.5919C52.6372 21.8368 52.4324 24.6259 52.0227 27.9592C54.2985 18.5715 56.961 11.8368 60.0105 7.75514C63.0599 3.67351 66.5645 1.63269 70.5243 1.63269C73.7103 1.63269 76.1453 3.1633 77.8293 6.22452C79.5588 9.28575 80.4236 13.5715 80.4236 19.0817C80.4236 22.0749 80.1278 25.7143 79.5361 30L75.3715 59.1837C74.9164 62.585 74.6888 65.5102 74.6888 67.9592C74.6888 70.8163 75.1212 72.9592 75.986 74.3878C76.8963 75.8163 78.1479 76.5306 79.7409 76.5306C81.2429 76.5306 82.6993 75.7823 84.1103 74.2857C85.5667 72.7891 87.2735 70.3061 89.2306 66.8368C89.7768 65.8844 90.3912 65.4082 91.0739 65.4082C91.6656 65.4082 92.1208 65.8163 92.4394 66.6327C92.8035 67.449 92.9855 68.5714 92.9855 70C92.9855 72.6531 92.5531 74.7619 91.6884 76.3265C89.3216 80.6123 86.9777 83.7415 84.6564 85.7143C82.3352 87.6871 79.9002 88.6735 77.3514 88.6735C73.4827 88.6735 70.456 86.9728 68.2713 83.5714C66.0866 80.1021 64.9943 75.4762 64.9943 69.6939C64.9943 65.6803 65.5405 59.864 66.6328 52.2449L69.3637 33.5715C69.4547 32.9592 69.614 31.8708 69.8416 30.3062C70.0691 28.7415 70.2512 27.2789 70.3877 25.9184C70.5243 24.4898 70.5925 23.0953 70.5925 21.7347C70.5925 19.3538 70.2739 17.5851 69.6368 16.4286C69.0451 15.2041 68.1803 14.5919 67.0424 14.5919C64.9033 14.5919 62.6503 16.6667 60.2836 20.8164C57.9623 24.898 55.7322 31.7007 53.593 41.2245C51.4993 50.7483 49.7925 63.1293 48.4726 78.3674C48.154 82.449 47.5851 85.2041 46.7659 86.6327C45.9921 87.9932 44.7177 88.6735 42.9427 88.6735C41.3952 88.6735 40.2573 88.1293 39.5291 87.0408C38.8464 85.9524 38.505 83.9116 38.505 80.9184C38.505 78.1293 38.7554 74.4898 39.256 70C39.7567 65.4422 40.3939 60.1021 41.1676 53.9796C43.2613 37.517 44.3081 26.9048 44.3081 22.1429C44.3081 19.5579 43.9667 17.6531 43.284 16.4286C42.6468 15.2041 41.6683 14.5919 40.3484 14.5919C38.1182 14.5919 35.8197 16.4966 33.4529 20.3062C31.0862 24.0477 28.765 30.7483 26.4893 40.4082C24.2591 50 22.393 62.9932 20.891 79.3878C20.5724 82.8572 20.0945 85.2721 19.4573 86.6327C18.8656 87.9932 17.6823 88.6735 15.9072 88.6735Z" fill="#F9F9F9"/>
</svg>
